# xmcd
#
# Track frame offsets: 
#        150
#        13731
#        28028
#        47094
#        63372
#        77000
#        97141
#        110411
#        123073
#        137842
#        153329
#        169800
#
# Disc length: 2484 seconds
#
# Revision: 0
# Processed by: cddbd v1.5.2PL0 Copyright (c) Steve Scherf et al.
# Submitted via: ExactAudioCopy v0.95a4
#
DISCID=9809b20c
DTITLE=Claude Hay - I Love Hate You
DYEAR=2012
DGENRE=Rock
TTITLE0=I Love Hate You
TTITLE1=Good Times
TTITLE2=Stone Face
TTITLE3=Best Days
TTITLE4=Where Have You Gone
TTITLE5=Close
TTITLE6=Narrow Mind
TTITLE7=Blues Train
TTITLE8=Don't Bring Me Down
TTITLE9=Come Together
TTITLE10=Hound
TTITLE11=Turn It Up
EXTD=
EXTT0=
EXTT1=
EXTT2=
EXTT3=
EXTT4=
EXTT5=
EXTT6=
EXTT7=
EXTT8=
EXTT9=
EXTT10=
EXTT11=
PLAYORDER=
